<?xml version="1.0" encoding="UTF-8" standalone="no"?>
<svg
   xmlns:dc="http://purl.org/dc/elements/1.1/"
   xmlns:cc="http://creativecommons.org/ns#"
   xmlns:rdf="http://www.w3.org/1999/02/22-rdf-syntax-ns#"
   xmlns:svg="http://www.w3.org/2000/svg"
   xmlns="http://www.w3.org/2000/svg"
   xmlns:sodipodi="http://sodipodi.sourceforge.net/DTD/sodipodi-0.dtd"
   xmlns:inkscape="http://www.inkscape.org/namespaces/inkscape"
   viewBox="0 0 496 512"
   version="1.1"
   id="svg4"
   sodipodi:docname="ava.svg"
   inkscape:version="0.92.4 (5da689c313, 2019-01-14)">
  <metadata
     id="metadata10">
    <rdf:RDF>
      <cc:Work
         rdf:about="">
        <dc:format>image/svg+xml</dc:format>
        <dc:type
           rdf:resource="http://purl.org/dc/dcmitype/StillImage" />
      </cc:Work>
    </rdf:RDF>
  </metadata>
  <defs
     id="defs8" />
  <sodipodi:namedview
     pagecolor="#ffffff"
     bordercolor="#666666"
     borderopacity="1"
     objecttolerance="10"
     gridtolerance="10"
     guidetolerance="10"
     inkscape:pageopacity="0"
     inkscape:pageshadow="2"
     inkscape:window-width="1920"
     inkscape:window-height="1029"
     id="namedview6"
     showgrid="false"
     inkscape:zoom="0.4609375"
     inkscape:cx="248"
     inkscape:cy="256"
     inkscape:window-x="0"
     inkscape:window-y="27"
     inkscape:window-maximized="1"
     inkscape:current-layer="svg4" />
  <path
     d="M248 8C111 8 0 119 0 256s111 248 248 248 248-111 248-248S385 8 248 8zm0 96c48.6 0 88 39.4 88 88s-39.4 88-88 88-88-39.4-88-88 39.4-88 88-88zm0 344c-58.7 0-111.3-26.6-146.5-68.2 18.8-35.4 55.6-59.8 98.5-59.8 2.4 0 4.8.4 7.1 1.1 13 4.2 26.6 6.9 40.9 6.9 14.3 0 28-2.7 40.9-6.9 2.3-.7 4.7-1.1 7.1-1.1 42.9 0 79.7 24.4 98.5 59.8C359.3 421.4 306.7 448 248 448z"
     id="path2" />
  <path
     style="fill:#ffffff;stroke-width:2.16949153"
     d="M 204.8931,499.37744 C 108.97135,481.12872 32.755254,410.14971 8.8916593,316.84395 -10.643811,240.461 7.4364093,160.44446 58.279645,98.270546 93.603415,55.074695 148.39304,23.072495 204.17627,13.053453 c 22.04822,-3.960007 67.02494,-3.8494534 88.4639,0.217446 33.11629,6.282054 63.51326,18.539674 91.66319,36.963326 19.54755,12.793541 54.5006,46.943956 66.74143,65.208865 52.21494,77.91136 57.91994,173.10636 15.28848,255.10676 -31.61251,60.80572 -89.93595,107.01496 -157.28983,124.61956 -26.46164,6.91643 -78.79897,9.03101 -104.15034,4.20803 z m 81.27294,-54.59983 c 35.41177,-7.28337 68.07685,-24.28136 95.11891,-49.49721 l 14.89132,-13.88568 -4.33898,-8.2407 c -5.5086,-10.46205 -23.28144,-28.77152 -35.27298,-36.33799 -24.72663,-15.60211 -50.34258,-20.28288 -77.44317,-14.15103 -22.44461,5.07835 -41.364,5.05377 -62.82498,-0.0816 -25.17932,-6.02518 -49.79968,-1.6374 -75.56644,13.46729 -10.77574,6.31682 -32.01914,27.93084 -37.09029,37.73737 l -3.5169,6.80093 17.01236,15.91569 c 25.71119,24.05378 58.15093,41.3514 90.29562,48.14772 20.48327,4.33074 57.99817,4.39042 78.73553,0.12518 z M 270.43233,277.79905 c 25.69953,-6.69212 45.57305,-23.25504 57.87047,-48.2302 6.68852,-13.5839 7.12771,-15.88243 7.12771,-37.30371 0,-21.17156 -0.50263,-23.88891 -6.92747,-37.45186 -8.96885,-18.93338 -24.60665,-34.56922 -43.53328,-43.52781 -13.44835,-6.36555 -16.36809,-6.91762 -36.31891,-6.86729 -27.88014,0.0703 -41.41737,5.08705 -59.89888,22.19766 -22.57772,20.90299 -33.56147,51.29446 -28.45741,78.74017 9.89314,53.19763 59.28493,85.68505 110.13777,72.44304 z"
     id="path3715"
     inkscape:connector-curvature="0" />
</svg>
